<svg xmlns="http://www.w3.org/2000/svg" version="1.0" viewBox="0 0 512 512"><defs/><path d="M86 104.2v80.3l9.7-.3 9.8-.3V24H86v80.2zM116.8 104l.2 80h92v21h94v-21h92l.2-80 .3-80h-279l.3 80zM138 60.5c0 14.4.2 15.8 2.1 18.5l2.2 2.9 1.8-2.3c1.6-2 1.9-4.6 2.1-18.2l.3-15.9 4.8-.3 4.7-.3v17.3l-.1 17.3-6.8 7.3-6.9 7.3-6.6-7.3-6.6-7.3V45h9v15.5zM179 49v4h-10v32h8V69h-3c-2.8 0-3-.3-3-3.5V62h15v29h-26V45h19v4zM406.5 103.9v80l9.8.3 9.7.3V24h-19.5v79.9zM209 233.1v17.5l31.3 4.8c17.1 2.7 36.8 5.6 43.7 6.7 6.9 1 14 2.1 15.8 2.4l3.2.6v-49.6h-94v17.6zM209 303.8v41.9l47-17.1 47-17.1v-35.3l-2.7-.6c-1.6-.3-10.4-1.7-19.8-3-17.4-2.6-35.2-5.2-57.9-8.7-7-1-13-1.9-13.2-1.9-.2 0-.4 18.8-.4 41.8zM298.5 323.9c-2.2.9-23.2 8.6-46.7 17.1L209 356.5V436h94v-57c0-31.4-.1-57-.2-56.9-.2 0-2.1.8-4.3 1.8zM209 455.1v8.1l4-.4c2.2-.2 4-.2 4 0 0 .3-1.8 2.1-4.1 4.1-4.5 4-5.7 8.3-4.5 16.5l.7 4.6h93.8l.7-4.6c1.2-8.2 0-12.5-4.5-16.5-2.3-2-4.1-3.8-4.1-4.1 0-.2 1.8-.2 4 0l4 .4V447h-94v8.1z"/></svg>