<?xml version="1.0" encoding="utf-8"?>
<svg viewBox="0 0 500 500" xmlns="http://www.w3.org/2000/svg">
  <g transform="matrix(1.947686, 0, 0, 1.947686, -80.743989, -3.840136)" style="">
    <g id="Layer1">
      <path d="M187.575,219.571L187.575,173.227L167.575,173.227L167.316,173.226C145.359,173.087 127.575,155.218 127.575,133.227L187.575,133.227L187.575,129.227L127.575,129.227L127.316,129.226C105.359,129.087 87.575,111.218 87.575,89.227L187.575,89.227L187.575,85.227L87.575,85.227L87.316,85.226C65.359,85.087 47.575,67.218 47.575,45.227L251.575,45.227L255.41,45.409C274.344,47.213 289.446,62.24 291.368,81.14L291.575,85.227L291.575,105.227C291.575,94.879 283.698,86.355 273.619,85.33L271.575,85.227L227.575,85.227L227.575,219.571L187.575,219.571Z"/>
    </g>
  </g>
</svg>